<svg xmlns="http://www.w3.org/2000/svg" id="roomstuff" xmlns:xlink="http://www.w3.org/1999/xlink" viewBox="0 0 1067 600">
  <g id="Layer_1">
    <g id="cityscape">
      <path id="citysky_3_" fill="#ACD8F3" d="M274.5 383l.758-381.901H46.137v381.868L274.5 383z"/>
      <path fill="#EFCDB4" d="M159.178 194.438v-12.844H113.7v12.844H94.21v129.41h84.458v-129.41z"/>
      <path fill="#789FB3" d="M146.186 203.261h32.484v6.922h-32.484zm0 15.592h32.484v6.922h-32.484zm-.002 46.775h32.484v6.922h-32.484zm0 15.591h32.484v6.924h-32.484zm.002-46.775h32.484v6.922h-32.484zm0 15.592h32.484v6.922h-32.484zm-.002 46.777h32.484v6.921h-32.484zm0 15.591h32.484v6.922h-32.484zM94.212 203.261h32.484v6.922H94.212zm0 15.592h32.484v6.922H94.212zm-.002 46.775h32.484v6.922H94.21zm0 15.591h32.484v6.924H94.21zm.002-46.775h32.484v6.922H94.212zm0 15.592h32.484v6.922H94.212zm-.002 46.777h32.484v6.921H94.21zm0 15.591h32.484v6.922H94.21z"/>
      <path fill="#789FB3" d="M150.27 188.692h-27.662v6.924h10.583v124.027h6.498V195.616h10.581z"/>
      <path fill="#B3B8C7" d="M163.834 237.589h92.469v89.28h-92.469z"/>
      <path fill="#789FB3" d="M165.675 242.449h80.129v5.974h-80.129zm0 12.265h80.129v5.973h-80.129zm0 12.264h80.129v5.977h-80.129zm0 49.057h80.129v5.977h-80.129zm0-36.792h80.129v5.972h-80.129zm0 12.263h80.129v5.975h-80.129zm0 12.265h80.129v5.977h-80.129z"/>
      <path fill="#F4EFEF" d="M238.603 280.664h36.655v62.785h-36.655z"/>
      <path fill="#789FB3" d="M239.332 284.081h31.764v4.201h-31.764zm0 8.625h31.764v4.201h-31.764zm0 8.624h31.764v4.203h-31.764zm0 34.5h31.764v4.203h-31.764zm0-25.875h31.764v4.201h-31.764zm0 8.625h31.764v4.201h-31.764zm0 8.625h31.764v4.203h-31.764z"/>
      <path fill="#EAE0C2" d="M203.052 339.508h72.206v43.896h-72.206z"/>
      <path fill="#789FB3" d="M209.444 344.221h14.819v10.105h-14.819zm0 14.785h14.819v19.686h-14.819zm22.302-14.785h14.818v10.105h-14.818zm0 14.785h14.818v19.686h-14.818zm22.301-14.785h14.819v10.105h-14.819zm0 14.785h14.819v19.686h-14.819z"/>
      <path fill="#A9C2DB" d="M159.015 313.645h84.458v69.76h-84.458z"/>
      <path fill="#789FB3" d="M163.527 321.543h14.44v61.861h-14.44zm20.332 0h14.44v61.861h-14.44zm20.332 0h14.44v61.861h-14.44zm20.331 0h14.44v61.861h-14.44z"/>
      <path fill="#F4EFEF" d="M46.137 255.236h75v128.467h-75z"/>
      <path fill="#789FB3" d="M47.63 262.228h64.993v8.597H47.63zm0 17.648h64.993v8.596H47.63zm0 17.647h64.993v8.598H47.63zm0 70.59h64.993v8.602H47.63zm0-52.943h64.993v8.598H47.63zm0 17.648h64.993v8.596H47.63zm0 17.649h64.993v8.6H47.63z"/>
      <path fill="#EFCDB4" d="M57.943 337.438h38.935v45.967H57.943z"/>
      <path fill="#789FB3" d="M60.541 341.906H94.28v10.102H60.541zm0 13.242H94.28v10.102H60.541zm0 13.241H94.28v10.102H60.541z"/>
      <path fill="#EAE0C2" d="M87.915 321.107H190.39v62.297H87.915z"/>
      <path fill="#789FB3" d="M96.986 327.795h21.031v14.344H96.986zm0 20.984h21.031v27.938H96.986zm31.65-20.984h21.032v14.344h-21.032zm0 20.984h21.032v27.938h-21.032zm31.651-20.984h21.032v14.344h-21.032zm0 20.984h21.032v27.938h-21.032z"/>
    </g>
    <g id="window_1_" fill="#FFFFFD">
      <path id="windowshades" d="M155.865 188.212h-41.924L74.212 9.113h41.922l39.731 179.099zm101.223 0h-45.154L169.143 9.113h45.152l42.793 179.099zm-90.21 187.027h-54.31L61.1 196.139h54.311l51.467 179.1zm97.027 0h-54.309l-51.469-179.101h54.31l51.468 179.101z" opacity=".2"/>
      <path id="windowframe" d="M45.716 0v384.615h230.77V0H45.716zm220.28 374.051H56.206V197.59h209.79v176.461zM56.206 187.024V10.565h209.79v176.459H56.206z"/>
    </g>
    <defs>
      <path id="SVGID_1_" d="M53.646 6.593h214.652v370.696H53.646z"/>
    </defs>
    <clipPath id="SVGID_2_">
      <use xlink:href="#SVGID_1_" overflow="visible"/>
    </clipPath>
    <g id="theclouds" fill="#FFF" clip-path="url(#SVGID_2_)">
      <path id="cloud6" d="M298.97 266.271c-2.895-4.975-8.225-8.357-14.396-8.357-.754 0-1.473.125-2.198.222-2.864-5.097-8.256-8.58-14.519-8.58-4.198 0-8.025 1.559-10.962 4.116-1.303-.838-2.849-1.33-4.513-1.33-.376 0-.736.063-1.099.111-1.433-2.547-4.127-4.289-7.259-4.289-3.131 0-5.825 1.742-7.258 4.289-.364-.049-.722-.111-1.099-.111-4.086 0-7.482 2.934-8.209 6.81h-5.644c0 4.616 3.743 8.357 8.357 8.357.377 0 .736-.063 1.099-.111 1.433 2.547 4.128 4.289 7.258 4.289 3.132 0 5.827-1.742 7.259-4.289.363.048.722.111 1.099.111h.004c2.955 2.731 6.881 4.416 11.229 4.416.752 0 1.471-.125 2.197-.222 2.864 5.097 8.257 8.581 14.519 8.581 8.309 0 15.181-6.068 16.477-14.011l7.658-.002z"/>
      <path id="cloud5" d="M249.401 90.973c0-.04.004-.077.004-.117h-.011c-.086-5.311-4.411-9.592-9.743-9.592-.438 0-.858.073-1.282.13-1.671-2.973-4.815-5.006-8.469-5.006-3.651 0-6.799 2.033-8.468 5.006-.423-.057-.844-.13-1.283-.13-5.384 0-9.75 4.367-9.75 9.75h.277c2.366 4.887 6.647 8.2 11.603 8.2.611 0 1.194-.125 1.783-.222 2.324 5.097 6.7 8.58 11.78 8.58 7.447 0 13.487-7.398 13.556-16.557h.003c.002-.015 0-.029 0-.042z"/>
      <path id="cloud4" d="M85.75 218.449c0-6.924-7.205-12.536-16.091-12.536-.725 0-1.417.094-2.115.166-2.756-3.822-7.948-6.434-13.976-6.434-6.026 0-11.219 2.613-13.975 6.434-.699-.072-1.391-.166-2.115-.166-8.386 0-15.268 5-16.016 11.382h-.076c0 .219.022.433.033.65-.009.168-.033.334-.033.504h.058c.582 6.383 5.929 11.383 12.441 11.383.563 0 1.1-.094 1.644-.166 2.142 3.822 6.174 6.434 10.855 6.434s8.714-2.613 10.855-6.434c.542.072 1.079.166 1.644.166 6.515 0 11.859-5 12.441-11.383H85.75z"/>
      <path id="cloud3" d="M235.26 210.654c0-.054.007-.105.007-.159h-.016c-.116-7.276-6.044-13.142-13.348-13.142-.601 0-1.177.1-1.757.178-2.288-4.073-6.598-6.857-11.603-6.857s-9.314 2.784-11.603 6.857c-.58-.078-1.154-.178-1.757-.178-7.377 0-13.357 5.982-13.357 13.358h.38c3.242 6.696 9.108 11.234 15.895 11.234.836 0 1.636-.173 2.443-.305 3.184 6.982 9.179 11.755 16.14 11.755 10.203 0 18.479-10.137 18.573-22.685h.005c.001-.019-.002-.036-.002-.056z" opacity=".5"/>
      <path id="cloud2" d="M167.03 147.111c-.895 0-1.749.149-2.61.264-3.079-5.48-8.623-9.379-15.163-10.073-2.703-3.963-8.05-6.664-14.212-6.664-.725 0-1.417.093-2.115.166-2.756-3.822-7.949-6.434-13.975-6.434s-11.219 2.613-13.976 6.434c-.699-.072-1.391-.166-2.115-.166-8.386 0-15.268 5-16.016 11.382h-.075c0 .219.022.433.033.649-.009.168-.033.334-.033.504h.06c.398 4.383 3.046 8.115 6.774 10.022 1.663 3.159 4.973 5.315 8.789 5.315.449 0 .875-.074 1.308-.132 1.7 3.026 4.902 5.097 8.625 5.097 3.721 0 6.923-2.069 8.625-5.097.432.057.857.132 1.306.132h.005c3.511 3.245 8.176 5.245 13.342 5.245.896 0 1.749-.149 2.611-.264 3.402 6.055 9.81 10.195 17.25 10.195 9.873 0 18.039-7.211 19.577-16.647h9.097c-3.447-5.909-9.779-9.928-17.112-9.928z" opacity=".5"/>
      <path id="cloud1" d="M149.52 78.034c-5.038-8.659-14.315-14.547-25.059-14.547-1.311 0-2.563.219-3.825.387-4.985-8.87-14.372-14.934-25.271-14.934-7.309 0-13.971 2.714-19.08 7.165-2.269-1.459-4.959-2.315-7.856-2.315-.656 0-1.281.109-1.914.192-2.492-4.436-7.185-7.466-12.634-7.466-5.45 0-10.143 3.032-12.635 7.466-.633-.085-1.258-.192-1.913-.192-7.112 0-13.024 5.107-14.289 11.854h-9.821c0 8.035 6.514 14.547 14.547 14.547.656 0 1.281-.109 1.914-.192 2.492 4.434 7.186 7.466 12.634 7.466 5.449 0 10.143-3.032 12.636-7.466.633.083 1.257.192 1.914.192h.007c5.144 4.754 11.977 7.685 19.545 7.685 1.31 0 2.563-.219 3.825-.387 4.983 8.872 14.372 14.934 25.269 14.934 14.463 0 26.426-10.563 28.682-24.388l13.324-.001z"/>
    </g>
    <g id="desk_1_">
      <path fill="#E2E5E7" d="M648.335 415.147c0 2.853-2.313 5.162-5.163 5.162H449.104c-2.854 0-5.165-2.312-5.165-5.161V284.664c0-2.852 2.313-5.165 5.165-5.165h194.067c2.853 0 5.163 2.313 5.163 5.165l.001 130.483z"/>
      <path fill="#D2D5D5" d="M569.318 420.311h-46.362s-.938 15.494-2.815 18.779h51.995c-1.879-3.285-2.818-18.779-2.818-18.779z"/>
      <path fill="#C6CBCB" d="M576.479 440.383c-2.818-.354-4.344-1.292-4.344-1.292h-51.996s-1.525.938-4.342 1.292-4.694.585-4.694 1.994h70.07c0-1.409-1.878-1.643-4.694-1.994z"/>
      <path fill="#2E404E" d="M643.172 279.499H449.104c-2.854 0-5.165 2.313-5.165 5.165v117.182h204.396V284.664c0-2.852-2.312-5.165-5.163-5.165zm-3.297 115.008H452.398V286.839h187.478v107.668z"/>
      <path fill="#0F1719" d="M452.398 286.839v107.667h187.478V286.839H452.398z"/>
      <path fill="#C6CBCB" d="M569.318 420.311h-46.362s-.141 2.307-.42 5.322h47.201c-.278-3.017-.419-5.322-.419-5.322z"/>
      <circle cx="546.163" cy="411.513" r="3.358" fill="#2E404E"/>
      <path fill="#0F1719" d="M654.746 446.521c0-6.271-4.674-11.354-10.438-11.354s-10.438 5.085-10.438 11.354c0 .122.015.243.019.365h20.844c.001-.121.013-.242.013-.365zm-51.44-8.792v-1.28h-7.323v1.28h-1.962v-1.28h-7.323v1.28h-1.963v-1.28h-7.323v1.28h-1.962v-1.28h-7.322v1.28h-1.962v-1.28h-7.323v1.28h-1.964v-1.28h-7.323v1.28h-1.961v-1.28h-7.323v1.28h-1.963v-1.28h-7.324v1.28h-1.962v-1.28h-7.322v1.28h-1.963v-1.28h-7.322v1.28h-1.964v-1.28h-7.323v1.28h-3.938v8.428H607.25v-8.428h-3.944z"/>
      <g id="pcwin3">
        <path fill="#E2E5E7" d="M460.423 295.606h71.43v92.033h-71.43v-92.033z"/>
        <path fill="#C6CBCB" d="M460.423 295.606h71.43v5.496h-71.43v-5.496z"/>
        <path fill="#BF5942" d="M465.367 298.354c0 .682-.554 1.236-1.235 1.236-.683 0-1.236-.554-1.236-1.236 0-.683.554-1.236 1.236-1.236.682 0 1.235.553 1.235 1.236z"/>
        <path fill="#36AC4A" d="M472.648 298.354c0 .682-.554 1.236-1.236 1.236-.682 0-1.235-.554-1.235-1.236 0-.683.554-1.236 1.235-1.236.682 0 1.236.553 1.236 1.236z"/>
        <path fill="#F7C549" d="M469.009 298.354c0 .682-.555 1.236-1.236 1.236s-1.236-.554-1.236-1.236c0-.683.555-1.236 1.236-1.236s1.236.553 1.236 1.236z"/>
        <path fill="#F1856C" d="M468.115 332.877h23.812v21.063h-23.812v-21.063z"/>
        <path fill="#F7C549" d="M500.35 332.877h23.811v21.063H500.35v-21.063z"/>
        <path fill="#335463" d="M466.535 306.273h59.203v1.373h-59.203v-1.373zm0 4.808h59.203v1.374h-59.203v-1.374zm0 4.808h59.203v1.375h-59.203v-1.375zm0 4.806h59.203v1.375h-59.203v-1.375zm0 4.81h59.203v1.373h-59.203v-1.373zm0 36.081h59.203v1.373h-59.203v-1.373zm0 4.248h59.203v1.374h-59.203v-1.374zm0 4.25h59.203v1.373h-59.203v-1.373zm0 4.249h59.203v1.374h-59.203v-1.374zm0 4.249h59.203v1.374h-59.203v-1.374zm0 4.249h59.203v1.373h-59.203v-1.373z"/>
      </g>
      <g id="pcwin1">
        <path fill="#48555C" d="M542.383 305.68h71.43v34.891h-71.43V305.68z"/>
        <path fill="#C6CBCB" d="M542.383 305.68h71.43v5.494h-71.43v-5.494z"/>
        <path fill="#BF5942" d="M547.326 308.427c0 .683-.554 1.236-1.235 1.236-.683 0-1.235-.556-1.235-1.236 0-.683.554-1.235 1.235-1.235.682-.003 1.235.552 1.235 1.235z"/>
        <path fill="#36AC4A" d="M554.607 308.427c0 .683-.554 1.236-1.236 1.236-.682 0-1.235-.556-1.235-1.236 0-.683.555-1.235 1.235-1.235.683-.003 1.236.552 1.236 1.235z"/>
        <path fill="#F7C549" d="M550.968 308.427c0 .683-.555 1.236-1.236 1.236s-1.235-.556-1.235-1.236c0-.683.555-1.235 1.235-1.235.681-.003 1.236.552 1.236 1.235z"/>
      </g>
      <g id="pcwin2">
        <path fill="#C6CBCB" d="M551.998 347.254h71.431v34.891h-71.431v-34.891z"/>
        <path d="M552.56 347.527h70.309v33.978H552.56v-33.978z"/>
        <path fill="#C6CBCB" d="M551.998 347.254h71.431v5.494h-71.431v-5.494z"/>
        <path fill="#BF5942" d="M556.944 350.001c0 .683-.554 1.235-1.236 1.235-.682 0-1.235-.553-1.235-1.235s.554-1.235 1.235-1.235c.682 0 1.236.552 1.236 1.235z"/>
        <path fill="#36AC4A" d="M564.225 350.001c0 .683-.555 1.235-1.236 1.235-.683 0-1.236-.553-1.236-1.235s.555-1.235 1.236-1.235 1.236.552 1.236 1.235z"/>
        <path fill="#F7C549" d="M560.584 350.001c0 .683-.556 1.235-1.236 1.235-.684 0-1.236-.553-1.236-1.235s.554-1.235 1.236-1.235 1.236.552 1.236 1.235z"/>
        <path fill="#65BC46" d="M553.555 353.846h4.854v.824h-4.854v-.824zm0 2.472h60.165v.824h-60.165v-.824zm0 2.473h11.447v.824h-11.447v-.824zm12.363 0h11.446v.824h-11.446v-.824zm-12.363 2.473h56.502v.824h-56.502v-.824zm0 2.472h60.164v.824h-60.164v-.824zm0 2.473h4.854v.824h-4.854v-.824z"/>
      </g>
      <path id="pcglare" fill="#E2E5E7" d="M643.172 279.499h-35.556l-74.803 122.347h115.521V284.664c.001-2.852-2.311-5.165-5.162-5.165z" opacity=".16"/>
      <path id="lamplight" fill="#FFF" d="M359.781 261.401l-7.601 185.852 318.315-1.465-250.273-217.675-60.441 33.288z" opacity=".2"/>
      <g id="smoke" fill="#FFF" opacity=".5">
        <path id="smoke3" d="M684.625 370.313c-2.13 3.652 2.13 11.801 8.521 8.768 6.39-3.092 6.486 3.314 4.744 5.844-3.099 4.551-2.179 9.723-2.179 9.723s1.211-5.112 6.052-10.117c6.633-6.909.387-17.418-7.311-13.148-6.004 3.316-6.438 1.123-6.486-.617-.048-1.742 2.42-5.845 2.42-5.845s-3.68 1.738-5.761 5.392z"/>
        <path id="smoke2" d="M689.127 358.174c2.275 2.416 4.744.449 5.713 1.631 2.372 2.641-3.193 9.158-3.193 9.158s8.373-3.146 7.356-9.665c-.628-3.989-3.68-4.553-6.825-3.597-4.212 1.293-3.873-3.034-3.873-3.034s-1.549 2.923.822 5.507z"/>
        <path id="smoke1" d="M693.388 394.757c-3.534-4.831.679-11.575.679-11.575s-6.294 1.967-6.634 6.521c-.338 4.552 1.694 4.944 3.196 7.418 1.501 2.528.482 6.066.482 6.066s5.085-4.552 2.277-8.43z"/>
      </g>
      <g id="coffee">
        <path fill="#F9ED32" d="M713.447 407.463h-6.16l1.094-8.022h-36.838l1.681 12.306h33.479l.088-.635h6.657v10.94H705.3l1.039-7.629h-32.748l1.652 12.088h29.448l.11-.812h12.295v-18.236h-3.649z"/>
        <path fill="#3A95D1" d="M677.524 443.205h24.891l2.275-16.694h-29.448l2.282 16.694z"/>
        <path d="M706.701 411.745h-33.479l.366 2.678h32.749l.364-2.678z"/>
        <circle cx="689.888" cy="412.637" r="10.234" fill="#A7A9AC"/>
        <circle cx="689.888" cy="412.637" r="8.723" fill="#FFF"/>
        <circle cx="689.888" cy="412.637" r="5.357" fill="#603913"/>
        <circle cx="689.888" cy="412.638" r="3.159"/>
        <circle cx="688.377" cy="410.062" r=".687" fill="#FFF"/>
        <path fill="none" stroke="#F7941E" stroke-width=".5" stroke-miterlimit="10" d="M678.395 420.926c0 2.404 5.1 4.351 11.401 4.351m-12.019-4.155c.219.171.699-.075 1.075-.553m10.885 4.132c-.205.188-.04.703.369 1.15"/>
        <path fill="#010101" d="M694.272 435.545l-4.296 4.296-4.734-4.735 4.734-4.735 4.321 4.321h-2.506c-.18-.757-.86-1.319-1.672-1.319-.951 0-1.721.771-1.721 1.72 0 .951.77 1.721 1.721 1.721.793 0 1.46-.536 1.659-1.268h-1.673v-.414h5.045c.002-.018.002-.034.002-.052 0-2.858-2.315-5.175-5.175-5.175s-5.175 2.315-5.175 5.175 2.315 5.175 5.175 5.175c2.701 0 4.918-2.069 5.153-4.709h-.858v-.001z"/>
      </g>
      <g id="printer_1_">
        <path fill="#155259" d="M880 375.129v-41.79h-15.597v-15.397H801.42v15.397h-15.599v41.79H752.93v67.187h159.964v-67.187H880z"/>
        <g id="printer">
          <path fill="#155259" d="M792.12 402.523h81.582v39.791H792.12v-39.791z"/>
          <path fill="#155259" d="M880 375.129H752.929v67.187h33.592v-44.79H879.3v44.79h33.593v-67.187H880zm-113.459 17.196c-2.098 0-3.798-1.7-3.798-3.8 0-2.099 1.7-3.799 3.798-3.799 2.1 0 3.801 1.7 3.801 3.799 0 2.1-1.7 3.8-3.801 3.8zm9.398 0c-2.097 0-3.798-1.7-3.798-3.8 0-2.099 1.701-3.799 3.798-3.799 2.099 0 3.8 1.7 3.8 3.799 0 2.1-1.702 3.8-3.8 3.8zm120.576 44.191c-2.542 0-4.602-2.059-4.602-4.6 0-2.54 2.06-4.6 4.602-4.6 2.538 0 4.599 2.06 4.599 4.6-.001 2.541-2.062 4.6-4.599 4.6z"/>
          <path fill="#0D2F35" d="M785.822 333.339h10.73v41.79h-10.73v-41.79zm83.449 0H880v41.79h-10.729v-41.79z"/>
          <path fill="#F7F8F8" d="M803.151 375.129h59.522v-41.79h1.729v-15.397H801.42v15.397h1.73v41.79zm2.517-49.191h54.488v1.399h-54.488v-1.399zm0 4.5h54.488v1.398h-54.488v-1.398zm0 4.5h54.488v1.398h-54.488v-1.398zm0 4.5h54.488v1.398h-54.488v-1.398zm0 4.498h54.488v1.398h-54.488v-1.398zm0 4.498h54.488v1.399h-54.488v-1.399zm0 4.5h54.488v1.398h-54.488v-1.398zm0 4.498h54.488v1.4h-54.488v-1.4zm0 4.498h54.488v1.4h-54.488v-1.4zm0 4.502h54.488v1.396h-54.488v-1.396zm0 4.498h54.488v1.398h-54.488v-1.398z"/>
          <path fill="#D9D8D7" d="M805.668 325.938h54.488v1.399h-54.488v-1.399zm0 4.5h54.488v1.398h-54.488v-1.398zm0 4.5h54.488v1.398h-54.488v-1.398zm0 4.5h54.488v1.398h-54.488v-1.398zm0 4.498h54.488v1.398h-54.488v-1.398zm0 4.498h54.488v1.399h-54.488v-1.399zm0 4.5h54.488v1.398h-54.488v-1.398zm0 4.498h54.488v1.4h-54.488v-1.4zm0 4.498h54.488v1.4h-54.488v-1.4zm0 4.502h54.488v1.396h-54.488v-1.396zm0 4.498h54.488v1.398h-54.488v-1.398z"/>
          <path fill="#0E1719" d="M862.674 375.129h6.598v-41.79h-6.598v41.79zm-61.254 0h1.73v-41.79h-6.599v41.79h4.869z"/>
          <circle cx="766.541" cy="388.526" r="3.799" fill="#F5C33F"/>
          <circle cx="775.939" cy="388.526" r="3.799" fill="#E4584A"/>
          <path fill="#0F171B" d="M786.523 397.524v44.79h5.598v-39.791h81.582v39.791h5.6v-44.79h-92.78z"/>
          <circle cx="896.515" cy="431.916" r="4.599" fill="#E5783A"/>
        </g>
      </g>
      <path fill="#ED4B59" d="M302.779 371.992h-.003l.002.004-13.015-1.727.004-.004h-.004l-2.895 21.836h13.244l2.667-20.109z"/>
      <path fill="#C0CED1" d="M302.778 371.996l-.002-.004-4.767-6.36-1.982-.264-6.259 4.897-.004.004 13.014 1.727z"/>
      <path fill="#ED4B59" d="M298.01 365.632l-.859-1.147-1.129.884.005.001 1.983.262z"/>
      <path fill="#91ACAD" d="M306.974 392.102l3.38-24.922-2.893-.393-3.433 25.314h2.946v.001z"/>
      <path fill="#D8E1E0" d="M307.475 366.777l.424-3.133 2.893.393-.425 3.133-2.892-.393z"/>
      <path fill="#CCCD2B" d="M309.493 392.102h-39.879v51.06h39.879v-51.06z"/>
      <path fill="#91ACAD" d="M308.43 359.432l2.891.392-.572 4.217-2.891-.392.572-4.217z"/>
      <path fill="#AF58A2" d="M272.745 368.256l-2.885.446 3.612 23.399h2.953l-3.68-23.845z"/>
      <path fill="#DADAE9" d="M269.388 365.576l2.884-.445.482 3.125-2.884.445-.482-3.125z"/>
      <path fill="#9556A2" d="M271.618 360.938l.648 4.205-2.884.444-.649-4.205 2.885-.444z"/>
      <path fill="#505557" d="M282.083 354.213s-.123-1.37-1.577-1.245c-1.465.128-1.331 1.497-1.331 1.497l3.267 37.635h2.929l-3.288-37.887z"/>
      <path fill="#CCCD2B" d="M306.939 392.102h-35.742v51.06h35.742v-51.06z"/>
      <path fill="#C8DB4C" d="M268.279 392.102h2.917v51.061h-2.917v-51.061z"/>
      <path fill="#ADAB36" d="M306.974 392.102h-.034v51.06h5.106v-51.06h-5.072z"/>
      <path fill="#735F4E" d="M931.852 442.434H254.929v17.508h40.985v140.053h27.719V459.94h357.783V600h218.835V459.94h31.601v-17.506z"/>
      <path fill="#735F4E" d="M295.914 459.941l27.719-.001-27.719.001zm0 140.052h27.719V468.086l-27.719-8.145v140.052z"/>
      <path fill="#5B4B3F" d="M323.633 468.086v-8.146l-27.719.001 27.719 8.145z"/>
      <path fill="#735F4E" d="M681.416 600h218.835V473.182l-218.835-13.234V600zm17.601-121.451h182.358v1.458h1.274v39.391H700.291v-1.458h-1.274v-39.391zm0 62.001h182.358v1.459h1.274V581.4H700.291v-1.459h-1.274V540.55z"/>
      <path fill="#5B4B3F" d="M900.25 473.182v-13.234H681.416l218.834 13.234zm-199.959 44.756v1.459H882.65v-39.39h-1.275v37.931H700.291z"/>
      <path fill="#B38B70" d="M881.375 517.938v-39.391H699.017v39.391h182.358zm-72.943-15.319h-36.473v-8.753h36.473v8.753z"/>
      <path fill="#C8B872" d="M771.959 493.866h36.473v8.753h-36.473v-8.753z"/>
      <path fill="#5B4B3F" d="M700.291 579.939v1.459H882.65V542.01h-1.275v37.931l-181.084-.002z"/>
      <path fill="#B38B70" d="M881.375 579.939v-39.391H699.017v39.391h182.358zm-72.943-15.317h-36.473v-8.754h36.473v8.754z"/>
      <path fill="#C8B872" d="M771.959 555.868h36.473v8.754h-36.473v-8.754z"/>
      <path fill="#B38B70" d="M254.929 442.434v17.508h676.923v-17.508H254.929z"/>
      <g id="pclogo">
        <g id="pcfills">
          <g id="pcxf">
            <path id="pcxf7" fill="#683817" d="M464.615 319.057c4.738 2.736 9.477 5.472 14.216 8.207l14.218-8.207v-8.208l-14.218 8.208-14.216-8.208v8.208z"/>
            <path id="pcxf6" fill="#C2AC9E" d="M485.938 306.745v8.207l7.108-4.104-7.108-4.103z"/>
            <path id="pcxf5" fill="#C2AC9E" d="M471.721 306.745v8.207l-7.106-4.104 7.106-4.103z"/>
            <path id="pcxf4" fill="#885C40" d="M464.615 327.264l7.106-4.104 7.106 4.104c-4.737 2.735-9.476 5.473-14.214 8.207l.002-8.207z"/>
            <path id="pcxf3" fill="#885C40" d="M493.046 327.264l-7.107-4.104-7.108 4.104c4.739 2.734 9.478 5.471 14.218 8.206l-.003-8.206z"/>
            <path id="pcxf2" fill="#A28571" d="M485.938 339.506v-8.207l7.108 4.104-7.108 4.103z"/>
            <path id="pcxf1" fill="#A28571" d="M471.721 339.506v-8.207l-7.106 4.104 7.106 4.103z"/>
          </g>
          <g id="pckf">
            <path id="pckf4" fill="#A28571" d="M533.83 316.983v8.189l-14.186 8.19v-8.19l14.186-8.189z"/>
            <path id="pckf3" fill="#683817" d="M512.551 308.792v28.666l7.094 4.096v-36.857l-7.094 4.095z"/>
            <path id="pckf2" fill="#C2AC9E" d="M533.83 312.887l-7.094-4.095v12.285l7.094-4.094v-4.096z"/>
            <path id="pckf1" fill="#885C40" d="M533.83 341.554v-8.19l-7.094-4.096-7.092 4.096 14.186 8.19z"/>
          </g>
          <g id="pcof">
            <path id="pcof4" fill="#683817" d="M581.738 314.936v16.381l-14.187 8.189-14.187-8.189v-16.381l7.094 4.095v8.19l7.093 4.096 7.094-4.096v-8.19l7.093-4.095z"/>
            <path id="pcof3" fill="#C2AC9E" d="M574.645 319.03l-7.094 4.096v8.19l7.094-4.096v-8.19z"/>
            <path id="pcof2" fill="#A28571" d="M560.458 319.03l7.093 4.096v8.19l-7.093-4.096v-8.19z"/>
            <path id="pcof1" fill="#885C40" d="M567.551 306.745l14.187 8.19-7.093 4.095-7.094-4.095-7.093 4.095-7.094-4.095 14.187-8.19z"/>
          </g>
          <g id="pcnf">
            <path id="pcnf5" fill="#683817" d="M597.727 314.936v20.476l7.094 4.095V319.03l-7.094-4.094z"/>
            <path id="pcnf4" fill="#683817" d="M626.098 314.936v20.476l-7.094 4.095V319.03l7.094-4.094z"/>
            <path id="pcnf3" fill="#885C40" d="M611.912 306.745l14.186 8.19-7.094 4.095-7.092-4.095-7.092 4.095-7.094-4.095v-8.19l7.094 4.095 7.092-4.095z"/>
            <path id="pcnf2" fill="#A28571" d="M604.821 319.03l7.092 4.096v8.19l-7.092-4.096v-8.19z"/>
            <path id="pcnf1" fill="#C2AC9E" d="M619.004 319.03l-7.092 4.096v8.19l7.092-4.096v-8.19z"/>
          </g>
        </g>
        <g id="pclines" fill="none" stroke="#FFF" stroke-miterlimit="10" stroke-linecap="round" stroke-linejoin="round">
          <g id="kl">
            <path d="M533.83 316.983v8.189l-14.186 8.19v-8.19l14.186-8.189z"/>
            <path d="M512.551 308.792v28.666l7.094 4.096v-36.857l-7.094 4.095zm21.279 4.095l-7.094-4.095v12.285l7.094-4.094v-4.096z"/>
            <path d="M533.83 341.554v-8.19l-7.094-4.096-7.092 4.096 14.186 8.19z"/>
          </g>
          <g id="nl">
            <path d="M597.727 314.936v20.476l7.094 4.095V319.03l-7.094-4.094zm28.371 0v20.476l-7.094 4.095V319.03l7.094-4.094z"/>
            <path d="M611.912 306.745l14.186 8.19-7.094 4.095-7.092-4.095-7.092 4.095-7.094-4.095v-8.19l7.094 4.095 7.092-4.095z"/>
            <path d="M604.821 319.03l7.092 4.096v8.19l-7.092-4.096v-8.19z"/>
            <path d="M619.004 319.03l-7.092 4.096v8.19l7.092-4.096v-8.19z"/>
          </g>
          <g id="ol">
            <path d="M581.738 314.936v16.381l-14.187 8.189-14.187-8.189v-16.381l7.094 4.095v8.19l7.093 4.096 7.094-4.096v-8.19l7.093-4.095z"/>
            <path d="M574.645 319.03l-7.094 4.096v8.19l7.094-4.096v-8.19zm-14.187 0l7.093 4.096v8.19l-7.093-4.096v-8.19z"/>
            <path d="M567.551 306.745l14.187 8.19-7.093 4.095-7.094-4.095-7.093 4.095-7.094-4.095 14.187-8.19z"/>
          </g>
          <g id="xl">
            <path d="M464.615 319.057c4.738 2.736 9.477 5.472 14.216 8.207l14.218-8.207v-8.208l-14.218 8.208-14.216-8.208v8.208z"/>
            <path d="M485.938 306.745v8.207l7.108-4.104-7.108-4.103zm-14.217 0v8.207l-7.106-4.104 7.106-4.103zm-7.106 20.519l7.106-4.104 7.106 4.104c-4.737 2.735-9.476 5.473-14.214 8.207l.002-8.207zm28.431 0l-7.107-4.104-7.108 4.104c4.739 2.734 9.478 5.471 14.218 8.206l-.003-8.206zm-7.107 12.31v-8.206l7.107 4.104-7.107 4.102z"/>
            <path d="M471.721 339.574v-8.207l-7.107 4.104 7.107 4.103z"/>
          </g>
        </g>
      </g>
    </g>
    <g id="chair">
      <path fill="#354750" d="M534.403 489.684c0-4.773.139-8.644-10.656-8.644-9.002 0-10.417 2.478-10.625 5.914V356.346c0-7.355 1.056-13.52-69.714-13.32h-.274c-2.012-.004-4.081-.006-6.224.002-71.827 0-69.714 5.963-69.714 13.318V488.24c-.079-4.088-.967-7.201-10.646-7.201-11.251 0-10.655 3.869-10.655 8.645v48.298c0 4.773-.321 8.646 10.655 8.646 9.68 0 10.566-3.116 10.646-7.204v1.801c0 3.579-.497 6.828 7.257 9.222h-.938c-5.303 0-9.744-.137-9.602 9.019 0 9.291 4.299 9.02 9.602 9.02h42.037v4.92h10.656V600h4.92v-.001h22.955v-26.598h10.657v-4.92h42.06c5.305 0 9.604.271 9.604-9.02 0-9.019-4.299-9.019-9.604-9.019h-1.709c8.026-2.394 8.031-5.643 8.031-9.223v-.924c.184 3.648 1.495 6.329 10.625 6.329 10.794 0 10.656-3.873 10.656-8.646v-48.294z"/>
      <g id="chair_1_">
        <path fill="#060809" d="M356.548 481.04c-11.251 0-10.655 3.869-10.655 8.644v48.298c0 4.773-.321 8.646 10.655 8.646 9.68 0 10.566-3.117 10.646-7.205v-51.184c-.079-4.087-.966-7.199-10.646-7.199zm177.855 8.644c0-4.773.139-8.644-10.656-8.644-9.002 0-10.417 2.478-10.625 5.914V540.3c.184 3.648 1.495 6.329 10.625 6.329 10.795 0 10.656-3.873 10.656-8.646v-48.299z"/>
        <path fill="#48555C" d="M440.265 554.54c-68.622-.173-66.572-6.068-66.572-13.315v-184.88c0-7.348-2.104-13.303 69.439-13.319-2.012-.004-4.081-.006-6.224.002-71.828 0-69.715 5.963-69.715 13.317v184.88c0 3.579-.497 6.827 7.257 9.221 8.188 2.525 25.573 4.1 62.458 4.1 1.141-.001 2.256-.003 3.357-.006z"/>
        <path fill="#2B3A3E" d="M513.121 356.346c0-7.355 1.056-13.52-69.714-13.32h-.274c64.481.177 63.49 6.188 63.49 13.32v184.879c0 7.236-.004 13.124-66.358 13.313-1.101.004-2.218.006-3.355.006-36.885 0-54.27-1.575-62.458-4.1h-.938c-5.303 0-9.744-.137-9.602 9.019 0 9.291 4.299 9.02 9.602 9.02h133.285c5.305 0 9.604.271 9.604-9.02 0-9.019-4.299-9.019-9.604-9.019h-1.709c8.026-2.394 8.031-5.644 8.031-9.223V356.346z"/>
        <path fill="#354750" d="M373.692 356.346v184.877c0 7.248-2.049 13.145 66.572 13.315 66.354-.189 66.358-6.077 66.358-13.313V356.346c0-7.134.99-13.145-63.49-13.32-71.544.016-69.44 5.972-69.44 13.32z"/>
        <path fill="#060809" d="M415.551 568.481h49.188v4.92h-49.188v-4.92z"/>
        <path fill="#EFF5F3" d="M431.127 573.434h18.036v26.565h-18.036v-26.565z"/>
        <path fill="#8A9395" d="M426.206 573.434V600h4.921v-26.566h-4.921zm22.957 26.565h4.917v-26.565h-4.917v26.565z"/>
      </g>
    </g>
    <g id="shelf_1_">
      <path id="shelfwhite" fill="#FFF" d="M340.093 178.08H743.39v30.248H340.093V178.08z"/>
      <g id="books">
        <path fill="#FCB54D" d="M378.523 126.601v2.52h113.596v12.099H378.523v2.521h115.948v-17.14H378.523z"/>
        <path fill="#FFF" d="M378.523 129.121h113.596v12.099H378.523v-12.099z"/>
        <path fill="#24A482" d="M375.855 143.741v2.521H489.45v12.099H375.855v2.521h115.949v-17.141H375.855z"/>
        <path fill="#FFF" d="M375.855 146.262H489.45v12.099H375.855v-12.099z"/>
        <path fill="#823724" d="M380.979 160.902v2.521h113.597v12.099H380.979v2.521h115.949v-17.141H380.979z"/>
        <path fill="#FFF" d="M380.979 163.423h113.597v12.099H380.979v-12.099z"/>
        <path fill="#823724" d="M380.854 109.481v2.521h113.595v12.1H380.854v2.52h115.947v-17.141H380.854z"/>
        <path fill="#FFF" d="M380.854 112.002H494.45v12.099H380.854v-12.099z"/>
        <path fill="#3796D2" d="M507.414 164.724l17.459-3.336-15.712-82.226-17.458 3.336 15.711 82.226zm4.798-22.244l-5.372-11.835 6.004-1.147-.632 12.982zm-7.847-41.073l5.372 11.834-6.003 1.147.631-12.981zm3.256 17.045c1.93-.368 3.79.896 4.159 2.825.368 1.929-.896 3.79-2.825 4.158-1.929.368-3.79-.896-4.157-2.824-.369-1.928.895-3.791 2.823-4.159zm19.814 56.319l-17.457 3.336-2.019-10.562 17.457-3.336 2.019 10.562zm-36.279-95.053l-2.019-10.562 17.458-3.336 2.018 10.562-17.457 3.336z"/>
        <path fill="#335463" d="M509.176 79.174l-17.459 3.336-.533-2.793 17.458-3.336.534 2.793zm16.24 85.035l-17.456 3.336-.534-2.793 17.458-3.336.532 2.793z"/>
        <circle cx="508.288" cy="121.943" r="3.555" fill="#335463"/>
        <path fill="#335463" d="M504.365 101.407l-.631 12.981 6.003-1.147-5.372-11.834zm7.847 41.073l.632-12.981-6.004 1.147 5.372 11.834z"/>
        <path fill="#F7C549" d="M528.556 164.689l17.35-3.859-18.179-81.715-17.35 3.859 18.179 81.715zm-7.989-76.83l7.198 4.579-4.579 7.199-7.198-4.579 4.579-7.199zm28.302 86.27l-17.349 3.86-2.336-10.496 17.349-3.861 2.336 10.497zm-39.131-93.916l-2.335-10.496 17.349-3.86 2.336 10.496-17.35 3.86z"/>
        <path fill="#F05145" d="M527.74 79.141l-17.349 3.86-.618-2.776 17.35-3.86.617 2.776zm18.794 84.491l-17.349 3.86-.618-2.776 17.349-3.86.618 2.776zm-25.966-75.797l7.199 4.578-4.578 7.198-7.199-4.578 4.578-7.198z"/>
      </g>
      <g id="plant">
        <path fill="#155F32" d="M714.658 95.888l.085-.099c-.028.002-.059.008-.088.011v-.02l-.02.021c-1.214.114-2.347.295-3.433.515-1.061 5.311-3.304 11.247-7.8 16.31h6.687c4.85-7.156 4.615-15.732 4.569-16.738zm-30.749 10.237c1.701-6.147 5.134-12.733 11.8-17.661-2.297-10.705-8.597-18.51-9.463-19.546l.012-.205c-.033.032-.064.065-.101.098-.003-.004-.02-.023-.02-.023l-.003.044c-8.826 8.132-12.356 16.58-13.059 24.333 4.255 2.849 8.41 7 10.834 12.96z"/>
        <path fill="#36AC4A" d="M659.248 100.027c-1.731-.294-2.975-.344-3.3-.351l-.081-.079c0 .026.006.051.006.077h-.019l.019.018c.143 5.722 1.813 9.894 4.176 12.935h5.88c-2.99-3.193-5.472-7.314-6.681-12.6z"/>
        <path fill="#0F8F46" d="M682.649 112.628c.237-2.036.634-4.238 1.261-6.503-2.425-5.96-6.579-10.111-10.831-12.958-6.481-4.342-13.163-5.678-14.146-5.857l-.101-.135c-.007.04-.007.076-.012.114-.006-.001-.024-.003-.024-.003l.021.029c-.643 4.854-.405 9.058.433 12.713 1.21 5.287 3.689 9.407 6.679 12.601l16.72-.001z"/>
        <path fill="#36AC4A" d="M683.909 106.125c-.627 2.265-1.023 4.467-1.261 6.503h20.759c4.495-5.063 6.739-11 7.8-16.31 1.455-7.292.705-13.391.563-14.384l.111-.156c-.043.007-.084.02-.128.027 0-.004-.005-.027-.005-.027l-.022.033c-6.764 1.286-11.975 3.668-16.016 6.653-6.666 4.929-10.099 11.513-11.801 17.661z"/>
        <path fill="#F1856C" d="M684.983 112.628h-27.534l8.943 65.423h18.591v-65.423z"/>
        <path fill="#BF5942" d="M684.983 112.628v65.423H703.6l3.563-26.169 3.72-27.26 1.634-11.994h-27.534z"/>
      </g>
      <g id="gixpix">
        <path fill="#6C4D32" d="M582.448 133.715v44.364h42.348v-44.364h-42.348zm40.204 42.118H584.59v-39.874h38.062v39.874z"/>
        <path fill="#FDFEFF" d="M609.077 163.848c-.622-.792-1.324-1.758-2.063-2.599-.96.792-2.052 1.29-3.21 1.29s-2.252-.491-3.21-1.29c-.589.666-1.146 1.41-1.663 2.083-.114.157-.229.3-.343.444-.114.156-.553.761-.666.905.906.865 1.387 1.099 2.178 1.512 0 0 3.19 1.86 3.87 1.951.154-.007 1.554-.884 3.637-1.98.63-.337 1.735-.84 2.195-1.454-.125-.131-.246-.271-.372-.425-.112-.137-.232-.281-.353-.437z"/>
        <path fill="#FDFEFF" d="M584.591 175.833h38.062v-39.874h-38.062v39.874zm7.187-5.48c0-2.063 1.717-4.362 3.992-5.861-.056-.163-.109-.348-.158-.56-.041-.173-.076-.359-.111-.563-.284-1.602-.439-4.255-.439-8.359 0-3.504 1.322-6.606 3.362-8.61.173-.205.385-.39.623-.558 1.366-1.122 3.006-1.777 4.764-1.777 4.831 0 8.75 4.892 8.75 10.933 0 3.869-.132 6.445-.39 8.077-.035.208-.067.396-.104.57-.035.211-.084.396-.132.565 2.353 1.481 3.907 3.93 3.907 6.144v5.474h-24.063l-.001-5.475z"/>
        <path fill="#FDFEFF" d="M610.502 151.541c-.057-.012-.142-.012-.211-.005l-.511.047-.071-.509c-.049-.324-.125-.643-.203-.942-.313.942-1.101 1.488-2.143 1.771-.03-.061-.42-1.71-2.46-2.851-.126-.085-.714-.288-.99-.324-.192-.018-.233.006-.233.006s1.866 1.8 1.77 3.409c-.551.012-1.519-.043-2.31-.144-2.551-.324-4.315-.103-4.951-2.161-.12.39-.21.798-.276 1.224l-.07.51-.512-.047c-.034-.006-.06-.006-.097-.006-.048 0-.083.006-.12.012-.228.054-.384.234-.46.378-.233.385-.29.949-.145 1.501.203.816.755 1.308 1.188 1.367l.354.05.101.359c.561 2.015 1.734 4.111 3.206 5.297.756.619 1.582.997 2.453.997.87 0 1.691-.385 2.453-.997 1.471-1.199 2.646-3.289 3.203-5.297l.097-.349.354-.048c.426-.047.979-.54 1.188-1.367.138-.558.085-1.116-.144-1.5-.081-.147-.233-.327-.46-.381z"/>
        <path fill="#9BCDCC" d="M615.843 170.353c0-2.214-1.556-4.663-3.907-6.144.048-.168.097-.354.132-.565.035-.174.067-.36.104-.57.258-1.632.39-4.208.39-8.077 0-6.042-3.918-10.933-8.75-10.933-1.758 0-3.396.654-4.764 1.777-.239.167-.45.354-.623.558-2.039 2.003-3.362 5.105-3.362 8.61 0 4.104.156 6.756.439 8.359.034.204.069.39.111.563.05.211.104.397.158.56-2.272 1.499-3.992 3.798-3.992 5.861v5.474h24.063c.001-.001.001-2.749.001-5.473zm-8.235-4.188c-2.083 1.097-3.479 1.972-3.637 1.98-.68-.09-3.869-1.951-3.869-1.951-.793-.413-1.271-.648-2.179-1.512.113-.144.552-.751.666-.906.113-.144.229-.288.343-.444.517-.672 1.074-1.417 1.663-2.083.958.799 2.052 1.29 3.21 1.29s2.251-.498 3.21-1.29c.738.841 1.44 1.807 2.063 2.599.12.157.241.3.354.437.126.156.247.294.372.425-.459.614-1.565 1.118-2.196 1.455zm3.498-12.746c-.209.827-.762 1.319-1.188 1.367l-.354.048-.097.349c-.558 2.01-1.732 4.099-3.203 5.298-.762.612-1.583.997-2.454.997-.87 0-1.696-.378-2.452-.997-1.472-1.188-2.646-3.283-3.206-5.298l-.101-.359-.354-.05c-.435-.059-.984-.55-1.188-1.367-.146-.553-.09-1.117.145-1.501.076-.144.232-.324.46-.378.037-.005.072-.012.12-.012.037 0 .063 0 .097.005l.512.047.07-.51c.066-.426.156-.834.276-1.224.636 2.059 2.4 1.836 4.951 2.161.791.101 1.758.156 2.31.144.098-1.608-1.77-3.409-1.77-3.409s.041-.024.233-.006c.276.036.864.241.99.324 2.04 1.141 2.431 2.79 2.46 2.851 1.042-.283 1.828-.828 2.143-1.771.077.299.155.618.203.942l.071.509.511-.047c.069-.005.155-.005.211.005.227.054.378.234.461.378.228.388.28.946.143 1.504z"/>
      </g>
    </g>
    <g id="frame_2_">
      <path fill="#BFE5E6" d="M1025.514 146.821h-81.356v132.732h107.845V146.821h-26.489z"/>
      <g id="frame_1_">
        <path fill="#BFE5E6" d="M1015.955 217.933v-4.607h.857l-6.855-.005.982-3.426-5.268-.004v5.784c.756.405 1.4.984 1.889 1.686.306-.097.626-.164.966-.162 1.697 0 3.074 1.315 3.202 2.981l2.829.001c.08-.959.616-1.781 1.398-2.248zm7.94-.61c.229.204.439.424.619.671.003.004.006.006.01.01v-1.245h1.158l-2.61-.001c.008.003.016.01.022.014.257.138.498.299.72.486.025.023.052.042.081.065zm-60.223 9.678l-5.144-.004.646-1.713-1.788-.001h-.568l-.857-.001v3.428l6.855.004v-1.712l.856-.001zm54.465-9.391c.318-.345.697-.633 1.116-.855h-.727l.981-3.427-1.837-.001v4.206c.157.015.314.038.467.077zm-20.375-.421c.338 0 .659.067.966.164.108-.156.226-.303.35-.445.063-.074.133-.142.2-.211.055-.056.108-.113.164-.166.105-.099.215-.194.327-.286l.013-.01c.184-.145.378-.275.578-.395.156-.095.316-.177.481-.256.019-.009.037-.018.056-.025.687-.322 1.441-.52 2.249-.519.277 0 .547.026.813.069v-5.219h.29l-6.284-.004 1.991-5.96-7.975-.005 4.265 12.82-3.429-.002h-.859v3.428l2.597.002c.13-1.668 1.508-2.981 3.207-2.98zm-27.533 6.388l-2.697-.002 1.283 3.43-4.286-.003v1.714l5.143.003v-5.142h.557zm-15.985 1.703h.557l-2.106-.001v3.427l1.551.001-.002-3.427z"/>
        <path fill="#BFE5E6" d="M952.694 217.097l.702-2.1v-.001l1.718-5.141 4.628 13.917 3.939-10.482 2.717 7.26 4.144-12.399 5.133 15.43-3.429-.001v-.001l-.859-.001v5.143l16.281.012-3.428-1.718.003-3.427c-.945-.001-1.715-.768-1.714-1.717.002-.945.77-1.713 1.717-1.712l5.998.004v-3.426h1.502l-5.783-.004 3.435-10.28v-.001l.848-2.534-14.536-.01c.002-3.37 2.735-6.1 6.105-6.099.64 0 1.246.126 1.825.311.73-1.052 1.662-1.951 2.729-2.662l-9.521-.006c.003-2.377 1.931-4.305 4.308-4.302.359 0 .703.058 1.035.141 1.125-1.213 2.718-1.983 4.502-1.981 2.814.001 5.181 1.896 5.908 4.476 3.203.195 6.006 1.86 7.729 4.346.53-.167 1.084-.283 1.664-.3l2.844-8.51 6.446 19.386 3.832-13.378 1.719-5.999 4.763 16.715 2.087-7.284 1.717-5.998 6.84 24.001-3.429-.002v-.001l-2.574-.001v3.428l.858.001 8.571.005c.943.001 1.713.768 1.713 1.717-.001.945-.771 1.713-1.717 1.713l-.004 3.428-3.43 3.425-1.033 5.149 12.27.01v-18.863l-7.798-.004c.001-1.672 1.354-3.025 3.023-3.025.251 0 .493.041.727.099.791-.852 1.907-1.395 3.16-1.395.304.001.601.034.888.095V157.33h-90.771l-.002 59.767zm50.885-36.802c.408 0 .794.082 1.162.199 1.17-1.68 3.109-2.784 5.313-2.781 2.201.002 4.14 1.107 5.307 2.788.368-.115.755-.197 1.162-.195 2.146.001 3.881 1.741 3.88 3.886l-20.708-.016c.001-2.144 1.742-3.882 3.884-3.881zm-40.381 15.147c1.349.001 2.549.584 3.397 1.504.252-.063.511-.106.781-.105 1.798.001 3.253 1.46 3.25 3.259l-12.079-.008c.004-2.57 2.085-4.652 4.651-4.65z"/>
        <path fill="#5AA07E" d="M970.229 223.577h1.156l.859.001-3.421-10.286 1.717-5.142-4.143 12.399 1.133 3.025 2.699.003z"/>
        <path fill="#7FBAE5" d="M1030.508 239.045l-5.146 3.424-.001 1.713 3.428.003c1.895.001 3.428 1.537 3.426 3.431 0 1.893-1.536 3.425-3.432 3.424l-37.706-.025c-1.894-.001-3.428-1.538-3.426-3.431.002-.627.184-1.208.479-1.715l-35.438-.029v10.297l43.541.03c2.449.003 4.436 1.97 4.433 4.397l42.796.029v-24.959l-12.27-.01-.684 3.421z"/>
        <path fill="#6DB195" d="M972.244 223.578l3.429.002-5.133-15.43-1.717 5.142 3.421 10.286z"/>
        <path fill="#79605B" d="M969.67 223.577v5.142l1.715.001v-5.143h-1.715zm-5.998 3.424h-.856v1.712l1.713.002v-1.714h-.857z"/>
        <path fill="#6DB195" d="M965.387 227.001l3.428.003-1.283-3.43-1.133-3.025-2.717-7.26-1.516 4.032 3.221 9.68z"/>
        <path fill="#79605B" d="M954.801 225.28h-.557v3.427l1.715.001v-3.428h-1.158z"/>
        <path fill="#659BD2" d="M987.652 247.584c-.002 1.894 1.533 3.43 3.426 3.431l37.707.025c1.896.001 3.431-1.532 3.431-3.424.002-1.895-1.532-3.43-3.426-3.431l-3.427-.003-.003 3.427h-.007l-5.816-.003-2.747-.002h-.004l-13.709-.01v.001l-6.855-.007-.428-1.714-.854-3.428-1.139-.001h-.522l-19.363-.018-3.463-.003-1.489-.001-6.993-.007-2.072-.002-7.203-.006v3.428l35.438.03c-.299.51-.48 1.09-.482 1.718z"/>
        <path fill="#FCBD82" d="M957.84 239.998c.307-.097.627-.162.966-.162.843 0 1.603.331 2.177.858.472-.331 1.042-.527 1.663-.527.241 0 .472.039.697.096.14-.153.295-.29.456-.42.019-.014.036-.029.055-.044.146-.112.302-.212.462-.304.093-.054.188-.099.282-.146.063-.029.125-.059.189-.085.489-.208 1.021-.336 1.589-.336 2.067 0 3.766 1.521 4.076 3.5l3.462.003c-.934-.016-1.685-.776-1.685-1.713 0-.945.771-1.712 1.717-1.712l3.429.002c.946.001 1.715-.765 1.717-1.714 0-.945-.768-1.714-1.714-1.714l-13.712-.01c-.947-.001-1.716-.77-1.714-1.717 0-.946.769-1.713 1.716-1.713l25.953.019-1.955-3.429-16.281-.012-1.715-.001-5.143-.003-1.714-.002-6.856-.004-1.714-.001-1.551-.001v9.024c.239-.033.481-.053.729-.053 1.835.003 3.447.923 4.419 2.321z"/>
        <path fill="#6DB195" d="M962.645 240.167c.242 0 .473.039.698.096-.227-.057-.456-.096-.698-.096zm3.73-1.239c-.566 0-1.099.126-1.588.336.274-.114.563-.206.863-.259 1.708.324 3.041 1.696 3.313 3.422l1.489.001c-.31-1.981-2.008-3.5-4.077-3.5zm-2.06.565c.093-.051.188-.101.282-.146-.095.049-.19.093-.282.146z"/>
        <path fill="#5AA07E" d="M965.651 239.003c-.301.055-.589.145-.863.259-.064.026-.128.056-.189.084-.096.045-.189.095-.282.146-.16.093-.314.194-.462.305-.019.014-.036.03-.055.044-.161.129-.316.267-.456.42-.227-.057-.456-.096-.697-.096-.62 0-1.19.198-1.663.527.49.452.848 1.045.984 1.724l6.994.007c-.271-1.724-1.603-3.095-3.311-3.42z"/>
        <path fill="#6DB195" d="M955.77 239.997c.305-.097.626-.163.966-.163 1.563.002 2.862 1.111 3.163 2.583l2.07.002c-.137-.679-.494-1.272-.984-1.724-.574-.528-1.335-.858-2.177-.858-.339 0-.659.066-.966.162-.973-1.398-2.585-2.318-4.416-2.32-.249 0-.49.021-.73.053v.152c1.259.325 2.349 1.071 3.074 2.113z"/>
        <path fill="#5AA07E" d="M956.735 239.834c-.34 0-.661.067-.966.163-.724-1.042-1.813-1.789-3.075-2.115v4.53l7.203.005c-.299-1.472-1.601-2.581-3.162-2.583zm.651-14.552l1.788.001-.646 1.713 5.144.004h.855l4.286.003-3.427-.003-3.22-9.68 1.515-4.032-3.939 10.482.503 1.512h-2.859zm-1.427-.001l.857.001-3.422-10.287-.701 2.101v8.183l2.106.001 1.16.001z"/>
        <path fill="#6DB195" d="M956.817 225.282h.568l2.858.001-.503-1.512-4.628-13.917-1.719 5.141 3.424 10.287z"/>
        <path fill="#FFD7A0" d="M989.621 232.161l-25.953-.019c-.946 0-1.716.766-1.716 1.713-.002.946.766 1.715 1.714 1.716l13.712.01c.945 0 1.714.768 1.714 1.714-.002.949-.77 1.716-1.717 1.714l-3.429-.002c-.945 0-1.717.766-1.717 1.712 0 .938.752 1.697 1.687 1.713l19.362.018h.523l1.138.001-.429-1.714-4.889-8.576z"/>
        <path fill="#FFF" d="M991.981 203.919l7.974.005 2.036-6.094c-.579.019-1.133.133-1.663.3-1.726-2.486-4.527-4.15-7.73-4.346-.729-2.582-3.093-4.475-5.909-4.476-1.783-.002-3.375.769-4.501 1.981-.334-.083-.676-.141-1.035-.141-2.377-.002-4.306 1.925-4.308 4.302l9.521.006c-1.066.71-1.997 1.61-2.729 2.662-.579-.185-1.187-.311-1.825-.311-3.369-.001-6.104 2.729-6.107 6.099l14.538.01.871-2.606.867 2.609zm24.542-23.613c-.407-.001-.794.079-1.162.195-1.168-1.68-3.104-2.786-5.307-2.788-2.203-.002-4.144 1.101-5.313 2.781-.369-.117-.754-.199-1.162-.199-2.144-.001-3.883 1.736-3.885 3.88l20.708.016c.002-2.145-1.734-3.884-3.879-3.885zm-49.144 16.535c-.271-.001-.529.042-.782.105-.847-.92-2.05-1.503-3.397-1.504-2.566-.001-4.647 2.081-4.649 4.65l12.08.008c0-1.799-1.455-3.258-3.252-3.259zm72.037 17.001c-.232-.058-.476-.099-.727-.099-1.669 0-3.022 1.352-3.023 3.025l7.798.004v-4.23c-.287-.061-.583-.094-.889-.095-1.252 0-2.368.542-3.159 1.395z"/>
        <path fill="#79605B" d="M1025.68 216.759h-1.158v1.245c.138.191.252.398.354.612.021.041.034.082.055.123.079.179.146.365.199.556.015.056.032.111.045.166.055.236.098.477.11.727h.949v-3.429h-.554z"/>
        <path fill="#6DB195" d="M1028.809 216.763l3.43.002-6.84-24.001-1.719 5.998 5.129 18.001z"/>
        <path fill="#5AA07E" d="M997.964 209.885l6.283.004h1.426v.001l5.268.004-2.692-.002-5.132-15.429 1.717-5.143-2.843 8.51-2.035 6.093-1.992 5.962z"/>
        <path fill="#79605B" d="M1003.957 215.108c.611.093 1.19.285 1.716.566v-5.785h-1.716v5.219z"/>
        <path fill="#6DB195" d="M1008.247 209.893l2.692.002.34-1.188-6.447-19.386-1.717 5.143 5.132 15.429z"/>
        <path fill="#5AA07E" d="M992.817 216.736l-3.422-10.285-3.435 10.281 5.783.003h.211l.863.001z"/>
        <path fill="#79605B" d="M991.955 216.736h-1.713v3.427l1.713.001v-3.428z"/>
        <path fill="#5AA07E" d="M1009.957 213.321l6.855.005h.855l1.838.001-.981 3.427h.725c-.418.222-.796.51-1.115.855-.151-.039-.308-.063-.467-.078-.075-.007-.152-.018-.231-.018-.544 0-1.047.16-1.481.419-.784.467-1.319 1.289-1.396 2.246l9.354.006c-.156-1.996-1.71-3.598-3.694-3.796-.003 0-.004-.001-.004-.001l.021-.003c.126-.03.256-.053.388-.069.022-.003.047-.01.07-.012.157-.019.315-.028.477-.028.701.001 1.351.191 1.926.498-.009-.004-.016-.011-.022-.014l2.61.001h.555v.001l2.574.001-5.128-18-2.087 7.283 2.076 7.286-3.428-.003-5.13-17.999-3.832 13.378-.341 1.188-.987 3.426z"/>
        <path fill="#79605B" d="M1015.955 217.933c.437-.259.938-.419 1.481-.419.079 0 .157.01.232.018v-4.206h-1.714v4.607h.001z"/>
        <path fill="#6DB195" d="M1023.67 213.331l-2.076-7.286-4.764-16.715-1.718 5.999 5.13 17.999 3.428.003zm-27.426 3.407l-4.264-12.819-.867-2.609-.871 2.606-.848 2.534v.001l3.422 10.285 3.428.002z"/>
        <path fill="#FCBD82" d="M1028.807 221.904c-.001.946-.768 1.713-1.715 1.713h-.042l8.609.006c.945 0 1.716-.767 1.718-1.713 0-.947-.769-1.715-1.713-1.717l-8.57-.005c.947.002 1.713.769 1.713 1.716zm-3.448 25.706h.002l.002-3.427.002-1.713 5.144-3.424-5.146 3.424-.004 5.14zm-10.284-1.72c.001-.946.769-1.713 1.716-1.713l5.143.003c.946.002 1.716-.765 1.716-1.713.001-.946-.765-1.714-1.712-1.714s-1.716-.77-1.713-1.717c.001-.946.768-1.714 1.715-1.713l3.429.002c.945 0 1.714-.767 1.716-1.713 0-.946-.767-1.716-1.714-1.716-.945-.001-1.714-.769-1.714-1.716.001-.945.77-1.713 1.716-1.712l1.716.001c.945 0 1.714-.766 1.716-1.714.002-.946-.767-1.714-1.714-1.715l-5.143-.003c-.946 0-1.713-.769-1.712-1.716 0-.945.767-1.712 1.714-1.712l-20.565-.015c-.947 0-1.716.766-1.717 1.713 0 .946.768 1.715 1.714 1.716l3.429.001c.945.001 1.713.77 1.713 1.717-.001.946-.77 1.713-1.716 1.713l-3.429-.002c-.945-.001-1.716.765-1.716 1.713-.001.946.768 1.715 1.713 1.715l10.283.008c.947 0 1.714.768 1.713 1.715 0 .945-.768 1.714-1.714 1.713l-8.569-.005c-.947-.002-1.718.765-1.718 1.713 0 .945.768 1.715 1.713 1.715l15.427.011c.945 0 1.713.769 1.713 1.714 0 .947-.769 1.714-1.716 1.714l-11.997-.008c-1.896-.002-3.43 1.531-3.432 3.424l13.709.01c-.946 0-1.715-.768-1.713-1.714zm1.729-15.424l-5.145-.004c-.944 0-1.713-.767-1.712-1.715 0-.946.769-1.713 1.717-1.713l5.143.004c.945 0 1.713.769 1.712 1.716-.002.944-.769 1.712-1.715 1.712zm2.734 17.14l5.816.003-1.709-.001-4.107-.002z"/>
        <path fill="#D2A073" d="M1016.807 227.038l-5.143-.004c-.947 0-1.717.766-1.717 1.713-.001.947.766 1.715 1.712 1.715l5.144.004c.947 0 1.715-.767 1.716-1.713 0-.946-.767-1.715-1.712-1.715z"/>
        <path fill="#FFD7A0" d="M1021.948 223.613c-.945 0-1.714.766-1.714 1.712-.002.946.765 1.717 1.712 1.717l5.143.003c.946.001 1.715.769 1.715 1.715-.003.947-.771 1.714-1.716 1.714l-1.716-.001c-.945-.001-1.716.766-1.717 1.712 0 .946.768 1.716 1.715 1.717.945 0 1.715.768 1.713 1.715-.001.945-.77 1.713-1.715 1.713l-3.43-.002c-.945-.001-1.714.766-1.716 1.713-.002.946.767 1.716 1.714 1.716s1.713.767 1.712 1.714c0 .947-.768 1.715-1.715 1.713l-5.144-.003c-.946 0-1.715.766-1.716 1.713s.766 1.714 1.711 1.715h.003l2.748.002 4.108.002 1.708.001h.005l.003-5.141 5.146-3.424.687-3.42 1.033-5.149 3.43-3.425.003-3.427-8.609-.007-5.101-.008z"/>
        <path fill="#6DB195" d="M1000.841 215.583c-.165.079-.326.162-.481.256.155-.092.315-.178.481-.256zm7.685 1.614c-.34-.002-.66.066-.966.162-.486-.701-1.133-1.28-1.889-1.686-.524-.281-1.104-.472-1.716-.566-.266-.042-.534-.069-.813-.069-.809-.001-1.563.196-2.249.519.383-.174.789-.306 1.214-.389 1.393.276 2.596 1.065 3.38 2.189.307-.097.626-.163.966-.162 1.697 0 3.073 1.315 3.202 2.981l2.071.002c-.126-1.665-1.503-2.981-3.2-2.981z"/>
        <path fill="#5AA07E" d="M1006.455 217.194c-.34-.001-.659.066-.966.162-.783-1.124-1.989-1.913-3.381-2.189-.424.083-.83.215-1.213.389-.019.009-.037.018-.056.025-.166.077-.326.164-.481.256-.201.12-.396.25-.578.395l-.014.01c-.111.091-.221.187-.326.286-.057.054-.11.111-.164.166-.067.069-.137.137-.2.211-.124.142-.242.29-.35.445-.307-.098-.628-.164-.966-.164-1.699-.001-3.077 1.313-3.208 2.978l15.104.01c-.127-1.663-1.502-2.98-3.201-2.98zm18.42 1.421c-.104-.213-.217-.421-.354-.612-.003-.003-.006-.005-.01-.01.14.196.261.405.364.622zm-1.062-1.357c.026.023.056.042.082.065-.029-.023-.056-.042-.082-.065zm1.471 2.93c-.014-.25-.057-.49-.11-.727.056.237.098.478.11.727zm-.353-1.448c.079.179.144.365.199.556-.055-.192-.12-.377-.199-.556z"/>
        <path fill="#6DB195" d="M1025.13 219.295c-.057-.191-.119-.376-.199-.556-.021-.041-.034-.083-.056-.123-.104-.218-.225-.428-.363-.621-.178-.249-.391-.468-.618-.671-.026-.023-.056-.042-.083-.065-.221-.187-.462-.348-.72-.486-.574-.307-1.224-.497-1.925-.498-.159 0-.318.011-.477.028-.023.002-.048.009-.07.012-.131.018-.261.04-.389.069l-.021.003s.002.001.004.001c1.986.199 3.54 1.801 3.695 3.797l1.373.002c-.013-.25-.055-.49-.11-.726-.011-.056-.027-.11-.041-.166z"/>
        <path fill="#D2A073" d="M989.621 232.161l4.891 8.575.429 1.714.854 3.428.427 1.714 6.855.006v-.001c.003-1.895 1.536-3.426 3.432-3.424l11.997.008c.947 0 1.716-.766 1.716-1.714 0-.944-.766-1.714-1.713-1.714l-15.425-.011c-.946 0-1.715-.769-1.715-1.715 0-.947.77-1.715 1.718-1.713l8.569.005c.945.001 1.715-.767 1.715-1.713.002-.946-.766-1.715-1.714-1.715l-10.282-.008c-.945 0-1.714-.768-1.714-1.715 0-.947.77-1.714 1.717-1.713l3.428.002c.946 0 1.715-.766 1.716-1.713 0-.946-.766-1.715-1.713-1.716l-3.428-.001c-.945-.001-1.714-.77-1.714-1.717.001-.946.769-1.713 1.716-1.713l20.565.015 5.104.003h.042c.944 0 1.714-.766 1.715-1.713 0-.946-.766-1.714-1.713-1.715h-.001l-.858-.001h-.949l-1.374-.002-9.354-.006-2.829-.001-2.071-.002-15.104-.01-2.597-.002-1.715-.001-5.998-.004c-.946-.001-1.715.766-1.717 1.712-.001.947.768 1.715 1.714 1.717l-.003 3.427 3.428 1.718h.001l1.952 3.429z"/>
        <path fill="#659BD2" d="M996.235 256.167l-43.541-.03v12.908h90.771v-8.45l-42.796-.03c.001-2.428-1.984-4.395-4.434-4.398z"/>
        <path fill="#3C4B5B" d="M1025.514 146.821h-81.356v132.73h107.845V146.82l-26.489.001zm17.949 65.721v56.503h-90.771V157.33h90.771v55.212z"/>
      </g>
    </g>
    <g id="lamp_1_">
      <circle id="bulb" cx="388.343" cy="241.805" r="11.556" fill="#F6CC44"/>
      <path d="M359.323 176.374h8.242v28.388h-8.242v-28.388z"/>
      <path fill="#EE5A33" d="M385.444 209.753l.003-.002-12.185-22.097-.01.005c-.016-.037-.028-.075-.048-.11-.894-1.62-6.549-.212-12.634 3.143-6.084 3.356-10.293 7.388-9.399 9.008.02.035.044.066.066.098l-.01.005 12.185 22.097-.033.019-3.682 39.861 60.826-33.54-35.079-18.487z"/>
      <path id="bulbhacks" fill="#F6CC44" d="M363.736 198.98l1.519-.837 6.931 12.563-1.52.837-6.93-12.563zm6.064-3.541l1.516-.836 6.931 12.564-1.517.837-6.93-12.565zm-12.28 6.766l1.519-.837 6.929 12.567-1.52.837-6.928-12.567z"/>
    </g>
    <path id="clockposition" fill="none" stroke="#000" stroke-miterlimit="10" d="M849.983 192.308h1.099"/>
  </g>
</svg>