<svg xmlns="http://www.w3.org/2000/svg" id="xkonlogogrey" viewBox="33.5 186 1000 228">
  <g id="fills">
    <g id="xf">
      <path fill="#212121" d="M35.146 276.545c29.343 16.924 58.687 33.846 88.034 50.771l88.046-50.771v-50.778l-88.046 50.774-88.034-50.774v50.778z"/>
      <path fill="#9E9E9E" d="M167.195 200.381v50.771l44.015-25.385-44.015-25.386zm-88.037 0v50.771l-44.011-25.385 44.011-25.386z"/>
      <path fill="#424242" d="M35.146 327.315l44.011-25.386 44.007 25.386c-29.339 16.921-58.678 33.849-88.021 50.766l.003-50.766zm176.064 0l-44.011-25.386-44.019 25.386c29.352 16.912 58.691 33.842 88.046 50.758l-.016-50.758z"/>
      <path fill="#616161" d="M167.195 403.044v-50.771l44.015 25.39-44.015 25.381zm-88.037 0v-50.771l-44.011 25.39 44.011 25.381z"/>
    </g>
    <g id="kf">
      <path fill="#616161" d="M463.772 263.715v50.662l-87.846 50.667v-50.667l87.846-50.662z"/>
      <path fill="#212121" d="M332 213.048v177.325l43.927 25.338v-228L332 213.048z"/>
      <path fill="#9E9E9E" d="M463.772 238.377l-43.927-25.329v75.992l43.927-25.325v-25.338z"/>
      <path fill="#424242" d="M463.772 415.711v-50.667l-43.927-25.338-43.919 25.338 87.846 50.667z"/>
    </g>
    <g id="of">
      <path fill="#212121" d="M760.438 251.048v101.333l-87.846 50.662-87.85-50.662V251.048l43.927 25.333v50.663l43.923 25.338 43.927-25.338v-50.663l43.919-25.333z"/>
      <path fill="#9E9E9E" d="M716.519 276.381l-43.927 25.333v50.667l43.927-25.338v-50.662z"/>
      <path fill="#616161" d="M628.669 276.381l43.923 25.333v50.667l-43.923-25.338v-50.662z"/>
      <path fill="#424242" d="M672.592 200.381l87.846 50.667-43.919 25.333-43.927-25.333-43.923 25.333-43.927-25.333 87.85-50.667z"/>
    </g>
    <g id="nf">
      <path fill="#212121" d="M859.455 251.048v126.663l43.927 25.333V276.381l-43.927-25.333zm175.688 0v126.663l-43.927 25.333V276.381l43.927-25.333z"/>
      <path fill="#424242" d="M947.301 200.381l87.842 50.667-43.927 25.333-43.915-25.333-43.919 25.333-43.927-25.333v-50.667l43.927 25.333 43.919-25.333z"/>
      <path fill="#616161" d="M903.382 276.381l43.919 25.333v50.667l-43.919-25.334v-50.666z"/>
      <path fill="#9E9E9E" d="M991.216 276.381l-43.915 25.333v50.667l43.915-25.334v-50.666z"/>
    </g>
  </g>
  <g id="lines" fill="none" stroke="#000" stroke-miterlimit="10" display="none" stroke-linecap="round" stroke-linejoin="round">
    <g id="kl">
      <path d="M463.772 263.715v50.662l-87.846 50.667v-50.667l87.846-50.662z"/>
      <path d="M332 213.048v177.325l43.927 25.338v-228L332 213.048zm131.772 25.329l-43.927-25.329v75.992l43.927-25.325v-25.338z"/>
      <path d="M463.772 415.711v-50.667l-43.927-25.338-43.919 25.338 87.846 50.667z"/>
    </g>
    <g id="nl">
      <path d="M859.455 251.048v126.663l43.927 25.333V276.381l-43.927-25.333zm175.688 0v126.663l-43.927 25.333V276.381l43.927-25.333z"/>
      <path d="M947.301 200.381l87.842 50.667-43.927 25.333-43.915-25.333-43.919 25.333-43.927-25.333v-50.667l43.927 25.333 43.919-25.333zm-43.919 76l43.919 25.333v50.667l-43.919-25.334v-50.666zm87.834 0l-43.915 25.333v50.667l43.915-25.334v-50.666z"/>
    </g>
    <g id="ol">
      <path d="M760.438 251.048v101.333l-87.846 50.662-87.85-50.662V251.048l43.927 25.333v50.663l43.923 25.338 43.927-25.338v-50.663l43.919-25.333z"/>
      <path d="M716.519 276.381l-43.927 25.333v50.667l43.927-25.338v-50.662zm-87.85 0l43.923 25.333v50.667l-43.923-25.338v-50.662zm43.923-76l87.846 50.667-43.919 25.333-43.927-25.333-43.923 25.333-43.927-25.333 87.85-50.667z"/>
    </g>
    <g id="xl">
      <path d="M35.146 276.545c29.343 16.924 58.687 33.846 88.034 50.771l88.046-50.771v-50.778l-88.046 50.774-88.034-50.774v50.778z"/>
      <path d="M167.195 200.381v50.771l44.015-25.385-44.015-25.386zm-88.037 0v50.771l-44.011-25.385 44.011-25.386zM35.146 327.315l44.011-25.386 44.007 25.386c-29.339 16.921-58.678 33.849-88.021 50.766l.003-50.766zm176.064 0l-44.011-25.386-44.019 25.386c29.352 16.912 58.691 33.842 88.046 50.758l-.016-50.758zm-44.011 76.152V352.7l44.015 25.39-44.015 25.377z"/>
      <path d="M79.153 403.462v-50.766l-44.01 25.389 44.01 25.377z"/>
    </g>
  </g>
</svg>